<?xml version="1.0" standalone="no"?>
<!DOCTYPE svg PUBLIC "-//W3C//DTD SVG 20010904//EN"
 "http://www.w3.org/TR/2001/REC-SVG-20010904/DTD/svg10.dtd">
<svg version="1.0" xmlns="http://www.w3.org/2000/svg"
 width="4673.000000pt" height="4673.000000pt" viewBox="0 0 4673.000000 4673.000000"
 preserveAspectRatio="xMidYMid meet">
<metadata>
Created by potrace 1.11, written by Peter Selinger 2001-2013
</metadata>
<g transform="translate(0.000000,4673.000000) scale(0.100000,-0.100000)"
fill="#000000" stroke="none">
<path d="M23257 46695 c-1 -2 -171 -6 -377 -10 -206 -3 -409 -8 -450 -10 -85
-3 -324 -15 -415 -20 -119 -6 -479 -31 -580 -40 -153 -13 -195 -16 -235 -20
-25 -3 -74 -8 -110 -11 -36 -3 -81 -7 -100 -9 -19 -2 -62 -6 -95 -10 -33 -3
-76 -8 -96 -11 -20 -2 -56 -7 -80 -9 -125 -13 -156 -16 -179 -20 -14 -2 -45
-7 -70 -9 -62 -7 -127 -15 -175 -22 -22 -4 -51 -8 -65 -9 -14 -2 -45 -6 -70
-10 -25 -3 -60 -8 -79 -10 -50 -6 -112 -15 -146 -21 -16 -3 -45 -7 -64 -10
-19 -2 -48 -7 -65 -10 -45 -7 -76 -12 -121 -19 -23 -3 -52 -7 -65 -10 -13 -3
-40 -7 -60 -10 -20 -3 -47 -8 -60 -10 -14 -3 -41 -7 -60 -10 -19 -3 -46 -7
-60 -10 -14 -3 -38 -7 -55 -10 -16 -2 -40 -6 -51 -9 -12 -2 -39 -7 -60 -11
-43 -6 -76 -12 -114 -20 -14 -3 -50 -9 -80 -15 -30 -6 -66 -12 -80 -15 -14 -3
-50 -10 -80 -16 -30 -5 -64 -12 -75 -15 -55 -11 -73 -15 -105 -20 -19 -3 -43
-7 -52 -10 -10 -3 -28 -7 -40 -10 -13 -2 -33 -6 -45 -9 -13 -3 -33 -7 -45 -10
-13 -2 -36 -8 -53 -12 -16 -3 -37 -7 -45 -8 -8 -1 -45 -10 -81 -18 -37 -9 -78
-18 -90 -21 -13 -2 -55 -12 -94 -21 -38 -9 -79 -19 -90 -21 -131 -29 -107 -24
-373 -89 -125 -31 -256 -65 -291 -76 -34 -10 -73 -21 -85 -23 -30 -6 -108 -26
-126 -33 -8 -3 -22 -7 -30 -9 -8 -2 -40 -10 -70 -19 -30 -9 -80 -23 -110 -32
-30 -8 -66 -19 -80 -23 -14 -4 -45 -13 -70 -20 -25 -7 -62 -19 -83 -26 -20 -8
-40 -14 -45 -14 -10 -1 -81 -20 -127 -35 -22 -7 -101 -32 -175 -55 -164 -52
-489 -158 -510 -167 -8 -3 -17 -7 -20 -8 -26 -6 -329 -112 -370 -128 -14 -6
-29 -11 -35 -13 -5 -1 -35 -11 -65 -23 -30 -11 -93 -34 -140 -51 -92 -33 -194
-72 -250 -95 -50 -21 -94 -38 -100 -39 -25 -6 -261 -103 -280 -115 -13 -9 -24
-14 -25 -11 0 3 -21 -3 -45 -14 -25 -10 -54 -22 -65 -27 -11 -4 -38 -16 -60
-25 -22 -9 -44 -18 -50 -19 -9 -3 -61 -25 -172 -76 -24 -10 -45 -19 -48 -19
-2 0 -34 -13 -70 -30 -36 -16 -67 -30 -69 -30 -2 0 -43 -18 -90 -40 -47 -22
-87 -40 -90 -40 -2 0 -56 -25 -121 -55 -64 -30 -118 -55 -120 -55 -14 0 -849
-412 -1050 -518 -106 -56 -265 -141 -332 -179 -120 -65 -142 -78 -203 -111
-36 -19 -69 -38 -75 -42 -5 -4 -30 -19 -55 -32 -226 -125 -544 -315 -870 -520
-294 -184 -335 -211 -338 -219 -2 -5 -8 -9 -13 -9 -9 0 -458 -296 -469 -309
-3 -3 -25 -19 -50 -35 -296 -190 -1143 -829 -1590 -1199 -52 -43 -104 -86
-115 -95 -122 -101 -482 -411 -570 -491 -16 -15 -82 -74 -145 -132 -180 -163
-190 -172 -224 -204 -17 -16 -96 -91 -175 -165 -151 -141 -706 -693 -825 -821
-38 -41 -106 -113 -150 -160 -119 -126 -161 -172 -277 -300 -267 -296 -430
-484 -658 -759 -199 -240 -199 -240 -281 -345 -39 -49 -79 -99 -88 -110 -10
-11 -31 -38 -48 -60 -16 -22 -34 -46 -41 -53 -14 -15 -123 -158 -260 -341 -56
-75 -105 -140 -110 -146 -5 -5 -64 -86 -131 -180 -67 -93 -125 -174 -130 -180
-19 -26 -85 -120 -157 -225 -43 -63 -82 -117 -85 -120 -4 -3 -9 -9 -11 -15 -2
-5 -79 -122 -170 -260 -91 -137 -172 -261 -179 -275 -7 -14 -16 -27 -20 -30
-19 -14 -470 -753 -470 -770 0 -6 -4 -10 -8 -10 -4 0 -15 -15 -23 -32 -9 -18
-56 -103 -106 -188 -49 -85 -107 -189 -129 -230 -21 -41 -42 -77 -45 -80 -5
-5 -32 -54 -145 -265 -198 -370 -544 -1066 -544 -1094 0 -6 -4 -11 -10 -11 -5
0 -10 -5 -10 -11 0 -9 -20 -56 -73 -169 -12 -25 -22 -47 -22 -50 -1 -3 -18
-40 -38 -83 -20 -43 -37 -80 -37 -82 0 -2 -15 -37 -33 -77 -19 -40 -49 -107
-66 -148 -18 -41 -39 -88 -46 -105 -30 -69 -145 -347 -180 -435 -21 -52 -43
-108 -50 -125 -11 -26 -53 -132 -75 -190 -21 -54 -35 -90 -35 -95 -1 -3 -9
-22 -18 -44 -9 -21 -17 -42 -17 -47 0 -5 -4 -17 -9 -27 -10 -18 -58 -146 -111
-297 -46 -131 -80 -224 -97 -270 -8 -22 -16 -47 -18 -55 -2 -8 -9 -28 -15 -45
-6 -16 -13 -37 -15 -45 -2 -8 -15 -45 -28 -82 -13 -38 -22 -68 -19 -68 2 0 0
-6 -5 -12 -9 -11 -16 -31 -29 -83 -1 -5 -16 -49 -32 -98 -17 -48 -31 -90 -32
-92 0 -3 -2 -10 -5 -17 -2 -7 -18 -60 -35 -118 -17 -58 -35 -116 -41 -130 -5
-14 -11 -34 -13 -45 -2 -11 -16 -56 -29 -100 -14 -44 -32 -105 -40 -135 -8
-30 -29 -104 -47 -163 -17 -60 -33 -116 -35 -125 -2 -9 -11 -44 -20 -77 -19
-68 -55 -202 -61 -225 -2 -8 -13 -51 -24 -95 -11 -44 -23 -88 -25 -98 -2 -10
-7 -27 -10 -37 -3 -10 -8 -27 -10 -37 -2 -10 -11 -49 -20 -88 -9 -38 -18 -78
-21 -88 -2 -10 -6 -27 -9 -37 -3 -10 -8 -28 -10 -39 -3 -12 -7 -30 -10 -42 -2
-11 -6 -28 -9 -37 -3 -9 -8 -28 -10 -42 -3 -14 -10 -43 -15 -65 -15 -66 -52
-238 -57 -265 -3 -14 -9 -41 -14 -60 -5 -19 -12 -48 -15 -65 -13 -74 -16 -92
-25 -125 -5 -19 -11 -51 -14 -70 -6 -36 -8 -47 -26 -135 -17 -85 -20 -99 -26
-134 -3 -18 -8 -43 -10 -55 -2 -11 -7 -36 -10 -55 -3 -18 -8 -43 -10 -55 -3
-11 -7 -37 -10 -56 -2 -19 -6 -42 -9 -50 -2 -8 -7 -30 -10 -47 -7 -48 -13 -84
-20 -120 -3 -18 -7 -46 -10 -63 -3 -16 -7 -43 -10 -60 -11 -67 -15 -88 -25
-155 -6 -38 -13 -83 -15 -100 -4 -29 -12 -80 -21 -140 -3 -16 -7 -46 -10 -65
-2 -19 -7 -53 -10 -75 -4 -22 -8 -51 -9 -65 -6 -50 -16 -126 -20 -150 -2 -14
-7 -50 -10 -80 -3 -30 -8 -66 -10 -80 -2 -14 -7 -50 -10 -80 -3 -30 -8 -71
-10 -91 -3 -20 -8 -56 -10 -80 -7 -70 -14 -135 -21 -192 -6 -55 -8 -79 -19
-197 -3 -41 -8 -93 -11 -115 -5 -51 -13 -140 -19 -230 -3 -38 -7 -95 -10 -125
-2 -30 -7 -93 -10 -140 -3 -47 -8 -112 -10 -145 -4 -53 -13 -221 -20 -375 -27
-560 -27 -1643 0 -2205 8 -169 16 -307 20 -365 2 -35 7 -103 10 -150 3 -47 8
-110 10 -140 3 -30 7 -89 10 -130 2 -41 7 -95 10 -120 3 -25 7 -70 9 -100 3
-30 7 -84 11 -120 4 -36 8 -81 10 -100 17 -170 16 -163 30 -291 5 -45 9 -78
20 -169 4 -25 8 -61 10 -80 2 -19 6 -53 9 -75 3 -22 8 -62 11 -90 4 -27 8 -61
10 -75 2 -14 7 -45 10 -70 3 -25 8 -56 10 -70 6 -42 14 -103 20 -145 3 -23 7
-52 10 -65 3 -13 7 -42 10 -65 3 -22 8 -51 10 -65 2 -14 7 -43 10 -65 3 -23 7
-52 10 -65 3 -13 7 -40 10 -60 3 -20 7 -47 10 -60 3 -13 7 -40 10 -60 3 -20 8
-47 10 -60 3 -14 8 -41 11 -60 8 -53 13 -83 19 -110 3 -14 7 -38 10 -55 2 -16
7 -41 10 -55 5 -25 10 -53 21 -112 3 -18 9 -51 14 -73 5 -22 12 -56 15 -75 3
-19 14 -75 25 -125 10 -49 22 -106 25 -125 3 -19 13 -64 21 -100 8 -36 17 -81
20 -100 3 -19 8 -38 10 -41 2 -3 6 -20 9 -37 3 -18 12 -62 21 -99 9 -38 18
-79 20 -92 3 -14 7 -28 9 -31 2 -4 7 -20 9 -36 10 -50 14 -67 31 -134 9 -36
18 -72 20 -80 2 -8 15 -62 30 -120 14 -58 28 -114 29 -125 2 -11 9 -32 15 -47
6 -16 8 -28 6 -28 -2 0 0 -11 5 -25 5 -14 12 -36 14 -48 4 -19 25 -98 87 -327
5 -19 12 -46 15 -59 3 -14 7 -28 10 -33 3 -4 7 -16 9 -25 1 -10 15 -58 30
-108 14 -49 28 -94 29 -100 15 -56 31 -112 51 -175 13 -41 42 -136 65 -210 23
-74 57 -182 77 -240 19 -58 36 -109 37 -115 1 -5 5 -16 9 -22 5 -7 6 -13 3
-13 -3 0 9 -37 25 -82 17 -46 43 -123 60 -173 16 -49 33 -97 36 -105 3 -8 7
-19 9 -25 6 -21 55 -161 63 -180 5 -11 34 -90 66 -175 80 -219 186 -495 220
-575 7 -16 20 -48 28 -70 9 -22 23 -58 33 -80 10 -22 18 -42 19 -45 8 -28 142
-342 238 -560 108 -247 124 -281 267 -585 71 -150 305 -621 386 -775 104 -199
233 -439 244 -455 4 -5 29 -50 55 -100 26 -49 52 -95 56 -101 5 -6 25 -42 45
-80 21 -38 40 -71 43 -74 3 -3 19 -30 35 -60 16 -30 35 -62 42 -71 8 -8 14
-19 14 -23 0 -7 271 -461 335 -561 31 -48 52 -82 159 -252 96 -154 522 -786
608 -904 10 -13 65 -91 123 -172 58 -82 110 -154 116 -160 5 -7 41 -55 79
-107 38 -52 78 -106 87 -119 162 -219 706 -901 834 -1046 10 -11 51 -58 90
-105 160 -188 470 -536 609 -685 31 -33 97 -103 145 -155 49 -52 112 -119 140
-149 27 -29 176 -180 331 -335 433 -434 780 -759 1184 -1110 69 -59 136 -118
150 -130 87 -76 307 -261 435 -364 83 -67 157 -128 165 -135 34 -30 216 -172
370 -290 91 -70 170 -130 175 -135 6 -4 66 -49 135 -100 69 -50 130 -96 137
-102 63 -53 688 -490 701 -490 6 0 12 -4 14 -9 3 -7 314 -215 518 -346 36 -23
79 -50 95 -61 17 -10 38 -23 47 -29 9 -5 53 -32 97 -60 188 -116 235 -145 397
-241 282 -168 487 -285 782 -445 31 -18 84 -46 117 -65 185 -101 834 -429
1050 -529 44 -21 112 -52 150 -70 39 -18 90 -42 115 -53 25 -11 85 -39 133
-61 49 -23 90 -41 92 -41 3 0 79 -34 193 -86 29 -13 54 -24 56 -24 3 0 26 -10
53 -22 26 -12 50 -22 53 -23 3 -1 16 -6 30 -12 58 -25 398 -165 435 -180 22
-9 54 -21 70 -28 17 -7 86 -34 155 -59 69 -26 141 -54 160 -61 37 -14 72 -27
80 -30 3 -1 12 -4 20 -8 77 -32 260 -97 272 -97 8 0 18 -4 23 -8 6 -5 60 -26
120 -46 61 -21 154 -54 208 -73 54 -19 106 -36 115 -38 9 -2 64 -21 122 -40
58 -20 112 -38 120 -40 8 -2 65 -20 125 -39 171 -56 173 -57 192 -61 10 -2 92
-27 183 -55 91 -28 175 -52 187 -55 13 -2 27 -6 33 -10 9 -6 23 -9 79 -21 14
-3 28 -7 33 -10 4 -3 16 -7 25 -9 10 -3 52 -14 93 -25 41 -12 82 -23 90 -25 8
-2 66 -17 128 -34 63 -17 124 -33 135 -35 12 -3 22 -5 22 -6 0 -1 7 -3 15 -5
27 -7 87 -22 118 -29 9 -3 32 -9 50 -15 18 -5 33 -10 35 -10 3 1 28 -5 162
-37 61 -14 118 -28 128 -30 9 -2 25 -6 35 -8 219 -51 301 -69 317 -72 11 -1
49 -9 85 -18 36 -8 79 -17 95 -20 17 -3 40 -8 53 -11 12 -3 32 -7 45 -10 12
-3 33 -7 47 -10 49 -9 75 -15 105 -21 17 -4 39 -8 50 -10 11 -2 32 -6 48 -9
79 -15 219 -42 272 -51 11 -2 32 -5 48 -8 15 -3 53 -10 85 -16 31 -5 73 -12
92 -16 44 -8 66 -12 110 -18 19 -3 46 -8 60 -11 14 -3 45 -8 70 -10 25 -3 52
-8 60 -10 8 -2 38 -7 65 -11 28 -3 59 -8 70 -10 11 -2 40 -7 65 -9 25 -3 52
-8 60 -10 8 -2 40 -7 70 -10 30 -3 69 -8 85 -11 44 -8 84 -13 141 -19 28 -3
62 -8 75 -10 13 -3 44 -7 69 -10 25 -3 61 -8 80 -11 19 -3 60 -7 90 -10 30 -2
66 -6 80 -9 14 -2 49 -6 78 -9 28 -3 76 -9 105 -12 28 -3 68 -7 87 -9 19 -2
58 -6 85 -9 45 -5 86 -9 220 -21 104 -9 194 -17 240 -20 28 -3 79 -7 115 -9
211 -17 303 -23 480 -32 58 -3 137 -7 175 -9 39 -2 158 -7 265 -12 107 -4
5595 -8 12195 -8 l12000 0 -1 11785 c0 6482 -4 11929 -8 12105 -9 342 -10 377
-20 585 -11 211 -14 265 -21 369 -4 53 -8 121 -10 151 -2 30 -6 87 -9 125 -3
39 -8 102 -11 140 -3 39 -7 90 -10 115 -3 25 -7 72 -10 105 -2 33 -7 85 -10
115 -3 30 -8 75 -10 100 -3 25 -7 65 -10 90 -3 25 -7 65 -10 90 -2 25 -7 70
-10 100 -4 30 -8 66 -10 80 -12 98 -16 136 -21 182 -2 29 -7 60 -9 68 -3 8 -7
38 -10 65 -3 28 -8 68 -11 90 -6 42 -8 59 -19 140 -3 28 -8 64 -11 80 -3 17
-7 41 -9 55 -2 14 -6 48 -10 75 -4 28 -9 59 -11 70 -2 10 -6 37 -9 60 -8 53
-19 120 -35 215 -5 30 -12 71 -15 90 -3 19 -7 46 -10 60 -3 14 -7 41 -10 60
-3 19 -8 46 -10 60 -10 48 -15 76 -25 135 -6 33 -15 80 -20 105 -5 25 -12 59
-15 75 -3 17 -7 41 -10 55 -3 14 -7 36 -10 50 -10 51 -15 76 -20 100 -4 14 -8
34 -9 45 -5 25 -14 73 -21 103 -5 21 -9 38 -20 92 -3 14 -7 35 -10 48 -2 13
-6 31 -9 40 -3 9 -7 28 -10 42 -5 29 -24 116 -31 145 -6 26 -14 59 -20 88 -2
12 -16 72 -31 132 -14 61 -28 118 -30 128 -9 40 -13 57 -39 157 -15 58 -28
112 -30 120 -4 22 -59 229 -112 420 -24 91 -46 173 -48 183 -2 9 -7 22 -10 27
-3 5 -8 20 -10 31 -5 26 -84 298 -92 319 -8 18 -7 15 -22 70 -7 25 -21 74 -33
110 -25 79 -27 89 -28 95 0 3 -6 21 -14 40 -9 20 -15 37 -16 40 0 3 -2 10 -5
17 -2 7 -16 51 -30 98 -29 93 -39 124 -51 155 -4 11 -8 22 -9 25 -13 43 -30
95 -64 190 -23 63 -43 122 -46 130 -8 29 -84 240 -90 250 -3 5 -8 18 -10 27
-3 15 -61 173 -82 223 -3 8 -7 20 -8 25 -2 6 -12 33 -23 60 -11 28 -39 100
-62 160 -23 61 -49 125 -56 142 -8 18 -21 50 -28 70 -8 21 -22 56 -32 78 -10
22 -18 42 -19 45 -1 3 -9 22 -18 44 -9 21 -17 41 -17 43 0 8 -231 547 -239
558 -4 6 -14 26 -21 45 -25 63 -143 320 -262 570 -113 236 -372 749 -448 885
-15 28 -42 78 -59 112 -18 34 -36 65 -42 68 -5 4 -7 10 -4 15 3 4 -2 13 -10
20 -8 7 -15 16 -15 20 0 8 -69 135 -109 200 -11 19 -24 42 -28 50 -24 51 -338
589 -418 715 -17 28 -81 129 -140 225 -110 177 -432 671 -444 680 -3 3 -12 17
-20 33 -8 15 -18 27 -23 27 -4 0 -8 4 -8 10 0 8 -85 137 -100 150 -3 3 -9 13
-15 22 -15 25 -117 172 -124 178 -3 3 -26 34 -51 70 -24 36 -48 70 -52 75 -4
6 -47 64 -95 130 -48 66 -91 125 -95 130 -4 6 -67 89 -139 185 -118 157 -327
426 -354 456 -5 7 -22 27 -37 45 -143 182 -451 552 -597 718 -255 293 -379
429 -645 716 -67 71 -285 294 -486 495 -305 304 -431 427 -670 650 -9 8 -61
55 -116 105 -54 49 -101 92 -104 95 -3 3 -68 61 -145 129 -77 68 -156 138
-175 155 -82 73 -368 313 -530 446 -282 230 -334 271 -525 417 -66 51 -124 96
-130 101 -5 4 -59 45 -120 90 -60 45 -115 86 -121 90 -13 11 -210 156 -268
197 -23 17 -87 61 -142 100 -54 38 -101 72 -104 75 -9 9 -97 68 -437 295 -393
261 -539 355 -552 355 -5 0 -11 4 -13 8 -3 9 -143 95 -443 274 -110 65 -207
123 -215 128 -25 15 -362 206 -410 233 -25 13 -70 38 -101 55 -225 124 -354
192 -365 192 -7 0 -16 5 -19 10 -6 10 -706 361 -880 442 -44 20 -133 62 -198
93 -64 30 -119 55 -122 55 -2 0 -43 18 -92 41 -48 23 -92 42 -98 43 -5 2 -41
17 -80 35 -38 19 -74 34 -80 36 -5 1 -30 11 -55 22 -45 21 -81 35 -90 38 -3 0
-20 9 -37 18 -18 10 -34 17 -35 17 -2 -1 -19 5 -38 13 -219 91 -296 122 -300
122 -3 1 -23 9 -45 19 -22 10 -58 24 -80 32 -22 8 -49 18 -60 23 -11 5 -81 33
-155 61 -258 99 -268 102 -275 101 -3 -1 -18 5 -33 13 -15 7 -47 21 -72 29
-25 9 -103 37 -175 62 -71 26 -134 47 -140 48 -5 2 -14 5 -20 8 -12 8 -593
199 -618 204 -9 2 -22 7 -27 10 -5 3 -20 8 -32 11 -31 7 -40 10 -60 18 -9 4
-22 9 -30 10 -7 1 -33 8 -58 15 -25 7 -46 13 -47 12 -2 0 -20 6 -40 14 -30 11
-130 42 -163 50 -3 1 -31 9 -64 19 -32 10 -64 19 -70 20 -6 1 -38 10 -71 20
-33 10 -71 20 -84 23 -13 2 -34 9 -45 15 -12 6 -23 11 -26 10 -3 -1 -23 3 -45
9 -22 6 -47 13 -55 14 -14 4 -69 18 -270 71 -95 26 -112 30 -151 39 -11 2 -29
7 -39 10 -10 3 -27 8 -37 10 -10 2 -74 17 -143 33 -192 46 -342 81 -370 86
-14 2 -43 9 -65 14 -22 6 -52 13 -68 16 -15 3 -35 7 -45 10 -9 3 -28 7 -42 10
-14 2 -72 14 -130 26 -58 11 -116 23 -130 26 -14 2 -36 7 -50 10 -14 3 -36 8
-50 10 -14 2 -45 9 -70 14 -46 10 -104 21 -130 25 -8 1 -28 5 -45 8 -16 4 -45
9 -62 12 -37 6 -78 13 -108 19 -11 2 -40 7 -65 11 -25 4 -54 9 -65 11 -47 10
-181 32 -230 39 -23 3 -52 7 -65 10 -13 3 -40 7 -60 10 -20 3 -45 7 -56 9 -12
2 -45 7 -74 11 -29 4 -60 8 -69 10 -9 1 -38 6 -66 9 -27 4 -61 9 -75 11 -14 2
-47 7 -75 11 -27 3 -59 7 -70 9 -35 5 -129 17 -155 20 -58 6 -137 16 -160 20
-26 4 -106 14 -175 21 -22 2 -58 6 -80 8 -22 3 -69 8 -105 11 -36 3 -76 8 -90
10 -14 2 -59 7 -100 10 -41 3 -91 8 -110 10 -37 4 -154 14 -230 20 -43 3 -154
12 -265 20 -51 4 -237 16 -310 20 -71 4 -348 18 -425 20 -178 7 -1009 23
-1013 20z m588 -11070 c94 -4 190 -8 215 -10 108 -7 249 -17 290 -20 149 -13
188 -16 215 -19 207 -22 314 -35 370 -43 22 -3 49 -6 60 -8 40 -4 140 -18 160
-22 11 -2 38 -6 60 -9 22 -3 51 -7 65 -9 14 -3 50 -9 80 -15 54 -9 96 -16 155
-26 17 -2 53 -9 80 -14 89 -18 100 -20 125 -25 14 -3 36 -7 50 -10 14 -3 36
-7 50 -10 14 -3 36 -7 50 -10 32 -7 108 -23 140 -29 14 -3 43 -10 65 -15 64
-16 177 -43 198 -47 10 -2 27 -6 37 -9 10 -3 27 -8 37 -10 22 -4 158 -41 229
-61 28 -8 62 -17 75 -20 29 -6 40 -9 59 -17 15 -5 125 -37 145 -41 6 -2 44
-13 85 -26 41 -13 80 -25 85 -26 30 -8 320 -106 378 -127 37 -15 67 -24 67
-20 0 3 6 1 13 -4 9 -8 68 -31 97 -38 3 -1 19 -7 35 -14 17 -6 55 -21 85 -32
52 -20 260 -103 325 -129 17 -7 54 -23 83 -36 29 -13 55 -24 58 -24 3 0 31
-12 62 -26 31 -15 95 -43 142 -64 47 -21 117 -52 155 -70 82 -37 515 -254 595
-297 77 -42 297 -165 343 -191 20 -12 52 -30 70 -41 17 -10 74 -44 126 -75 51
-31 97 -56 101 -56 5 0 10 -3 12 -7 2 -5 64 -46 138 -92 74 -47 163 -104 197
-128 35 -24 67 -43 72 -43 5 0 11 -4 13 -8 2 -5 37 -31 78 -58 41 -27 81 -54
90 -61 8 -7 53 -39 100 -72 47 -33 90 -64 95 -68 6 -4 73 -55 150 -112 794
-592 1581 -1352 2202 -2126 83 -104 163 -206 208 -265 27 -36 53 -69 58 -75 7
-9 218 -301 256 -355 10 -14 42 -61 71 -105 30 -44 56 -82 59 -85 3 -3 12 -17
20 -32 8 -15 22 -37 33 -47 10 -11 18 -23 18 -26 0 -5 64 -106 83 -130 18 -23
117 -188 117 -194 0 -4 8 -16 18 -27 9 -10 28 -39 41 -64 14 -25 36 -63 50
-85 14 -22 32 -53 41 -70 9 -16 48 -86 87 -155 111 -198 148 -268 263 -499 98
-194 144 -290 208 -431 11 -25 33 -72 48 -105 15 -33 28 -62 29 -65 1 -3 6
-16 12 -30 75 -178 170 -413 209 -520 19 -52 42 -111 49 -130 17 -39 114 -317
120 -340 2 -8 4 -16 5 -17 2 -2 3 -6 4 -10 2 -9 5 -18 51 -163 18 -58 43 -139
55 -180 12 -41 28 -94 36 -117 7 -23 16 -52 18 -65 3 -13 17 -66 31 -118 14
-52 28 -103 30 -113 2 -10 7 -27 10 -37 3 -10 8 -28 10 -39 3 -12 7 -30 10
-41 6 -26 9 -37 35 -145 12 -49 24 -101 26 -115 3 -14 7 -33 10 -42 3 -9 7
-27 10 -40 4 -23 9 -43 19 -88 3 -14 8 -38 10 -55 3 -16 13 -64 21 -105 9 -41
17 -88 19 -104 3 -15 6 -35 9 -45 3 -9 8 -34 11 -56 3 -23 8 -52 11 -65 6 -28
9 -45 18 -110 4 -25 9 -56 11 -70 5 -29 11 -68 20 -125 3 -23 7 -50 9 -60 2
-11 7 -45 10 -76 4 -31 8 -65 10 -75 3 -17 8 -54 21 -174 3 -19 7 -60 10 -90
3 -30 7 -71 10 -90 2 -19 7 -69 10 -110 3 -41 8 -97 11 -125 24 -258 38 -626
38 -990 0 -375 -13 -711 -39 -1005 -2 -25 -7 -79 -10 -120 -4 -41 -8 -91 -10
-110 -2 -19 -7 -60 -10 -90 -3 -30 -7 -68 -9 -85 -3 -16 -8 -59 -11 -95 -4
-35 -8 -72 -10 -81 -2 -9 -6 -40 -10 -69 -4 -29 -8 -62 -11 -73 -2 -11 -6 -41
-9 -66 -3 -25 -7 -57 -10 -71 -5 -25 -14 -86 -20 -130 -3 -23 -9 -58 -19 -105
-2 -11 -7 -40 -11 -65 -4 -25 -9 -54 -11 -65 -2 -11 -6 -31 -9 -45 -3 -14 -7
-36 -10 -50 -2 -13 -7 -42 -11 -64 -3 -22 -7 -43 -9 -47 -2 -3 -7 -19 -9 -35
-9 -49 -14 -73 -31 -151 -6 -27 -13 -60 -20 -88 -5 -23 -35 -153 -40 -175 -2
-8 -11 -44 -20 -80 -9 -36 -18 -72 -20 -80 -5 -24 -31 -120 -49 -181 -9 -31
-19 -66 -21 -78 -10 -43 -14 -57 -29 -99 -8 -23 -16 -46 -16 -50 0 -4 -6 -25
-12 -47 -6 -22 -12 -44 -14 -50 -2 -12 -27 -91 -62 -195 -13 -41 -25 -79 -27
-85 -1 -5 -5 -17 -8 -25 -6 -13 -71 -203 -81 -235 -2 -5 -6 -17 -9 -25 -3 -8
-17 -46 -31 -85 -14 -38 -36 -100 -51 -137 -14 -38 -36 -96 -49 -130 -13 -35
-38 -97 -56 -138 -17 -41 -37 -91 -45 -111 -7 -20 -25 -62 -39 -93 -14 -31
-26 -58 -26 -60 0 -2 -12 -30 -27 -62 -15 -33 -28 -61 -28 -64 -2 -12 -117
-254 -216 -455 -115 -233 -305 -586 -375 -697 -13 -21 -24 -39 -24 -42 0 -5
-114 -193 -181 -298 -27 -42 -49 -81 -49 -87 0 -5 -4 -11 -9 -13 -7 -2 -75
-106 -134 -202 -7 -11 -17 -27 -24 -35 -7 -9 -57 -81 -111 -159 -116 -169
-101 -148 -274 -379 -486 -648 -998 -1206 -1638 -1787 -190 -173 -541 -461
-788 -649 -338 -256 -835 -590 -1147 -770 -11 -7 -31 -19 -45 -28 -14 -9 -46
-28 -72 -43 -27 -14 -67 -37 -90 -50 -222 -124 -337 -185 -523 -279 -210 -107
-428 -209 -620 -292 -16 -7 -55 -24 -85 -38 -84 -38 -515 -207 -530 -209 -3 0
-22 -9 -42 -19 -21 -11 -38 -18 -38 -15 0 2 -35 -9 -77 -26 -43 -16 -85 -31
-93 -33 -8 -3 -76 -25 -150 -50 -74 -26 -142 -48 -150 -50 -8 -2 -16 -4 -17
-5 -2 -2 -6 -3 -10 -4 -5 -1 -35 -10 -68 -21 -33 -10 -63 -19 -67 -21 -5 -1
-9 -2 -10 -4 -2 -1 -10 -3 -18 -5 -8 -2 -55 -15 -105 -30 -49 -15 -97 -28
-105 -30 -8 -2 -15 -4 -15 -5 0 -1 -7 -3 -15 -5 -9 -1 -51 -13 -95 -25 -44
-12 -87 -23 -95 -25 -8 -2 -42 -10 -75 -19 -33 -9 -71 -19 -85 -22 -14 -3 -43
-10 -65 -16 -44 -11 -67 -16 -105 -24 -14 -3 -33 -7 -42 -10 -10 -3 -30 -7
-45 -10 -16 -3 -36 -7 -45 -10 -9 -3 -25 -7 -35 -9 -156 -32 -281 -57 -293
-60 -8 -1 -33 -6 -55 -10 -37 -6 -51 -9 -110 -19 -11 -2 -47 -9 -80 -15 -33
-6 -75 -13 -92 -16 -18 -3 -46 -7 -62 -10 -16 -3 -49 -7 -72 -10 -24 -3 -55
-7 -69 -10 -14 -2 -45 -7 -70 -10 -25 -4 -56 -8 -70 -10 -24 -4 -66 -10 -160
-21 -25 -3 -58 -7 -75 -9 -16 -2 -61 -7 -100 -10 -38 -4 -81 -8 -95 -10 -14
-2 -63 -7 -110 -11 -47 -3 -98 -7 -115 -9 -26 -2 -152 -11 -290 -20 -345 -23
-1068 -23 -1390 0 -27 2 -95 7 -150 10 -55 4 -116 8 -135 10 -19 1 -73 6 -120
9 -47 4 -96 9 -110 11 -14 2 -52 6 -85 9 -33 3 -82 9 -110 12 -27 4 -61 8 -75
9 -14 2 -45 6 -69 9 -24 3 -65 8 -90 11 -25 3 -55 7 -66 9 -11 2 -45 7 -75 11
-30 4 -64 9 -75 11 -11 2 -36 6 -55 9 -19 3 -46 7 -60 10 -14 3 -45 8 -70 11
-25 3 -52 7 -61 10 -9 3 -32 7 -50 9 -19 3 -45 7 -59 10 -14 3 -36 8 -50 10
-14 2 -36 6 -50 9 -14 3 -41 9 -60 12 -37 7 -57 11 -92 19 -22 5 -47 10 -98
20 -14 3 -36 7 -50 11 -14 3 -34 7 -45 9 -11 2 -58 13 -104 25 -46 11 -102 25
-125 30 -22 4 -51 11 -63 14 -13 3 -32 8 -43 11 -11 3 -29 7 -40 10 -11 3 -28
7 -37 10 -10 2 -52 13 -93 24 -65 17 -185 51 -340 96 -25 7 -97 29 -160 50
-63 20 -122 38 -130 40 -8 3 -62 21 -120 41 -58 20 -109 37 -115 38 -5 2 -17
6 -25 9 -8 4 -64 25 -125 46 -206 75 -394 148 -595 233 -105 44 -127 54 -340
150 -36 16 -95 45 -133 63 -37 19 -69 35 -72 35 -7 0 -250 121 -355 178 -126
67 -208 111 -270 145 -82 45 -298 170 -355 205 -27 17 -63 39 -80 48 -16 9
-92 57 -168 105 -77 49 -143 89 -148 89 -5 0 -9 4 -9 10 0 5 -16 16 -35 25
-19 9 -39 23 -46 31 -6 8 -17 14 -24 14 -8 0 -15 3 -17 8 -1 4 -39 32 -83 62
-88 59 -294 204 -310 217 -5 5 -63 48 -127 95 -103 77 -336 258 -393 306 -11
9 -74 61 -140 116 -66 55 -136 115 -155 132 -19 18 -48 43 -65 56 -16 12 -37
30 -45 39 -8 9 -67 63 -130 120 -63 57 -122 111 -131 119 -205 188 -623 624
-864 901 -107 123 -165 191 -257 304 -40 50 -81 99 -90 109 -10 11 -20 28 -24
38 -3 10 -9 18 -13 18 -4 0 -21 19 -38 43 -17 23 -39 52 -49 64 -11 12 -27 32
-36 45 -9 13 -47 64 -84 113 -81 109 -285 397 -339 480 -21 33 -42 62 -47 63
-4 2 -8 8 -8 13 0 4 -37 66 -83 136 -87 134 -259 417 -342 563 -150 263 -445
839 -445 868 0 6 -4 12 -10 12 -5 0 -10 8 -10 18 0 10 -6 26 -13 37 -7 11 -23
43 -35 70 -11 28 -31 73 -43 100 -13 28 -24 52 -24 55 -1 3 -11 26 -23 51 -36
77 -187 455 -237 594 -25 72 -49 137 -52 145 -4 8 -7 17 -7 20 -1 5 -31 89
-43 120 -4 8 -7 17 -8 20 0 3 -7 23 -14 45 -17 55 -19 59 -18 65 0 3 -5 15
-12 28 -7 13 -14 32 -16 42 -3 16 -36 124 -93 305 -3 11 -7 23 -8 28 -1 4 -2
8 -4 10 -1 1 -3 9 -5 17 -10 41 -15 58 -25 90 -6 19 -13 46 -16 60 -3 14 -16
63 -29 110 -25 91 -94 369 -101 410 -3 14 -7 33 -10 42 -3 9 -7 27 -10 40 -2
13 -6 32 -9 43 -12 55 -16 74 -25 120 -5 28 -12 61 -15 75 -3 14 -8 41 -11 60
-3 19 -9 51 -14 70 -5 19 -11 51 -14 70 -3 19 -8 46 -11 60 -2 13 -7 40 -10
60 -3 20 -7 45 -9 57 -7 34 -17 96 -21 128 -3 17 -7 48 -10 70 -4 22 -8 51
-10 65 -2 14 -6 39 -9 55 -3 17 -7 50 -10 75 -10 79 -16 134 -21 170 -3 19 -7
55 -10 80 -2 25 -7 70 -11 100 -3 30 -7 73 -9 95 -4 38 -13 141 -20 215 -2 19
-7 87 -10 150 -4 63 -9 138 -11 165 -17 263 -21 716 -10 1050 8 236 9 267 21
440 4 55 8 123 10 151 2 28 6 77 9 110 4 32 9 84 11 114 3 30 7 70 10 90 2 19
7 62 10 95 3 33 7 70 9 82 3 12 7 49 11 82 3 33 8 70 10 82 3 12 7 45 10 73 2
28 7 62 10 76 4 23 14 83 20 125 4 34 15 100 20 125 3 14 7 41 10 60 3 19 7
46 10 60 3 14 7 39 10 55 3 17 8 44 12 60 3 17 7 40 9 52 1 11 5 29 8 40 3 10
8 32 11 48 5 29 8 49 21 110 3 17 14 66 24 110 11 44 21 91 24 105 3 14 7 34
10 45 2 11 10 43 16 70 14 62 19 80 25 105 3 11 7 29 10 40 3 11 7 28 9 38 3
9 12 44 21 77 15 55 31 117 40 155 4 16 50 174 86 292 11 37 20 70 20 73 0 2
15 48 34 100 19 53 34 98 35 100 1 8 7 28 35 110 15 44 28 86 28 93 0 6 4 12
9 12 4 0 7 3 6 8 -2 6 41 135 62 187 5 11 29 76 55 145 26 69 53 139 60 155 7
17 33 80 58 140 63 155 87 211 138 320 13 28 23 52 24 55 3 18 308 635 363
735 88 160 119 216 190 340 205 357 451 734 719 1104 83 114 333 438 365 472
7 8 28 35 47 59 60 78 283 338 356 415 11 12 35 39 54 61 109 127 564 587 756
766 229 212 551 485 785 667 80 62 152 118 160 124 113 91 681 489 700 492 3
1 57 35 120 76 176 116 505 310 755 446 105 57 586 298 694 347 183 83 255
115 331 146 30 12 59 26 65 31 5 5 15 9 22 9 7 0 32 8 56 19 23 10 65 27 92
39 58 24 394 152 400 152 2 0 16 5 32 12 15 6 30 12 33 13 22 6 58 18 75 25
38 16 475 157 545 175 8 2 40 11 70 20 30 9 71 21 90 26 19 5 42 12 50 14 8 2
51 14 95 25 44 12 85 22 90 24 6 1 30 8 55 15 25 7 56 15 70 18 40 8 55 11 55
13 0 1 11 4 24 6 14 2 50 11 80 19 31 8 68 16 84 19 15 3 35 7 45 10 9 3 28 7
42 10 14 2 69 14 124 25 105 22 133 28 181 36 17 3 64 12 105 20 41 8 91 17
110 20 19 3 46 7 60 10 23 4 45 8 120 20 14 2 43 6 65 10 23 3 51 7 62 9 12 3
46 7 75 10 29 4 62 8 74 10 12 2 45 7 75 11 30 3 65 8 79 10 14 3 50 7 80 10
30 3 75 7 100 10 120 14 267 27 455 41 155 11 177 12 390 19 110 4 201 8 202
9 5 5 603 -2 758 -9z"/>
</g>
</svg>
